<svg width="17" height="17" viewBox="0 0 17 17" fill="none" xmlns="http://www.w3.org/2000/svg">
<path fill-rule="evenodd" clip-rule="evenodd" d="M15.2725 11.6613L13.3312 9.72C12.8065 9.19467 11.9545 9.19467 11.4299 9.72L9.81986 11.33C7.79986 10.4853 6.18119 8.86667 5.33652 6.84667L6.94652 5.23667C7.47119 4.71133 7.47119 3.86 6.94652 3.33533L5.00519 1.394C4.47986 0.868667 3.62852 0.868667 3.10319 1.394L2.18052 2.31667C1.22119 3.27533 0.817191 4.65067 1.07719 5.98133C2.02186 10.8213 5.84452 14.6447 10.6852 15.59C12.0159 15.8493 13.3912 15.4447 14.3499 14.486L15.2725 13.5633C15.7979 13.038 15.7979 12.1867 15.2725 11.6613Z" stroke="black" stroke-width="2" stroke-linecap="round" stroke-linejoin="round"/>
</svg>
